HIERARCHY
ROOT joint_Root
{
	OFFSET 0.0 0.0 0.0
	CHANNELS 6 Xposition Yposition Zposition Zrotation Xrotation Yrotation 
	JOINT Hips
	{
		OFFSET -0.726466 93.3139 -2.00062
		CHANNELS 6 Xposition Yposition Zposition Zrotation Xrotation Yrotation 
		JOINT Spine
		{
			OFFSET 15.7357 0.0 0.0
			CHANNELS 6 Xposition Yposition Zposition Zrotation Xrotation Yrotation 
			JOINT Chest
			{
				OFFSET 8.98455 -0.406207 0.0
				CHANNELS 6 Xposition Yposition Zposition Zrotation Xrotation Yrotation 
				JOINT Neck
				{
					OFFSET 16.3773 0.0 0.0
					CHANNELS 6 Xposition Yposition Zposition Zrotation Xrotation Yrotation 
					JOINT Head
					{
						OFFSET 6.45672 0.0 0.0
						CHANNELS 6 Xposition Yposition Zposition Zrotation Xrotation Yrotation 
						End Site
						{
							OFFSET 0.0 0.0 0.0
						}
					}
				}
				JOINT Shoulder_L
				{
					OFFSET 12.9942 -0.242716 4.98039
					CHANNELS 6 Xposition Yposition Zposition Zrotation Xrotation Yrotation 
					JOINT UpperArm_L
					{
						OFFSET 5.34809 0.0 0.0
						CHANNELS 6 Xposition Yposition Zposition Zrotation Xrotation Yrotation 
						JOINT LowerArm_L
						{
							OFFSET 24.3286 1.87007e-05 0.0
							CHANNELS 6 Xposition Yposition Zposition Zrotation Xrotation Yrotation 
							JOINT Hand_L
							{
								OFFSET 22.2916 0.0 0.0
								CHANNELS 6 Xposition Yposition Zposition Zrotation Xrotation Yrotation 
								End Site
								{
									OFFSET 0.0 0.0 0.0
								}
							}
						}
					}
				}
				JOINT Shoulder_R
				{
					OFFSET 12.9945 -0.242716 -4.98039
					CHANNELS 6 Xposition Yposition Zposition Zrotation Xrotation Yrotation 
					JOINT UpperArm_R
					{
						OFFSET -5.34813 0.0 0.0
						CHANNELS 6 Xposition Yposition Zposition Zrotation Xrotation Yrotation 
						JOINT LowerArm_R
						{
							OFFSET -24.3289 0.000322201 0.0
							CHANNELS 6 Xposition Yposition Zposition Zrotation Xrotation Yrotation 
							JOINT Hand_R
							{
								OFFSET -22.2915 -0.000108084 0.0
								CHANNELS 6 Xposition Yposition Zposition Zrotation Xrotation Yrotation 
								End Site
								{
									OFFSET 0.0 0.0 0.0
								}
							}
						}
					}
				}
			}
		}
		JOINT UpperLeg_L
		{
			OFFSET -2.19248 -6.46944 0.0
			CHANNELS 6 Xposition Yposition Zposition Zrotation Xrotation Yrotation 
			JOINT LowerLeg_L
			{
				OFFSET 39.0811 0.0 -1.23785e-05
				CHANNELS 6 Xposition Yposition Zposition Zrotation Xrotation Yrotation 
				JOINT Foot_L
				{
					OFFSET 40.9854 0.0 -1.26872e-05
					CHANNELS 6 Xposition Yposition Zposition Zrotation Xrotation Yrotation 
					JOINT Toes_L
					{
						OFFSET 11.7543 0.0 0.0
						CHANNELS 6 Xposition Yposition Zposition Zrotation Xrotation Yrotation 
						End Site
						{
							OFFSET 0.0 0.0 0.0
						}
					}
				}
			}
		}
		JOINT UpperLeg_R
		{
			OFFSET -2.19251 6.46944 0.0
			CHANNELS 6 Xposition Yposition Zposition Zrotation Xrotation Yrotation 
			JOINT LowerLeg_R
			{
				OFFSET -39.0811 -0.00228153 -0.0401928
				CHANNELS 6 Xposition Yposition Zposition Zrotation Xrotation Yrotation 
				JOINT Foot_R
				{
					OFFSET -40.9854 0.0 0.0
					CHANNELS 6 Xposition Yposition Zposition Zrotation Xrotation Yrotation 
					JOINT Toes_R
					{
						OFFSET -11.7543 0.0 0.0
						CHANNELS 6 Xposition Yposition Zposition Zrotation Xrotation Yrotation 
						End Site
						{
							OFFSET 0.0 0.0 0.0
						}
					}
				}
			}
		}
	}
}
MOTION
Frames:	7
Frame Time:	0.0333333
0.000000 0.000000 0.000000 0.000000 0.000000 -0.000000 -0.759290 92.017300 -0.362046 87.653200 -1.470860 2.168660 15.735700 0.000005 -0.000001 88.783900 84.856700 -87.940900 8.984550 -0.406207 -0.000000 2.520670 -0.256701 1.689870 16.377300 -0.000001 -0.000001 0.076957 -3.856510 1.958750 6.456720 -0.000001 -0.000000 -3.476660 -2.838470 -1.232630 12.994200 -0.242716 4.980390 -90.233700 0.752731 -72.748800 5.348090 -0.000007 -0.000001 -65.675900 38.925600 -15.607200 24.328600 0.000019 0.000005 3.337220 7.080750 -25.315800 22.291600 -0.000001 0.000005 6.552400 5.538830 -8.190770 12.994500 -0.242716 -4.980390 88.278000 4.887810 -70.565300 -5.348130 -0.000001 -0.000004 -58.414200 44.998600 -14.953000 -24.328900 0.000322 -0.000009 5.598390 8.664090 -33.055700 -22.291500 -0.000108 -0.000004 10.145900 5.521900 -7.452740 -2.192480 -6.469440 -0.000000 -169.447000 -14.412900 -2.476530 39.081100 -0.000007 -0.000012 -0.183000 0.469027 21.314400 40.985400 -0.000006 -0.000013 -5.984130 2.491580 -65.009000 11.754300 -0.000000 0.000003 -0.000061 -0.000671 -16.603500 -2.192510 6.469440 -0.000001 174.696000 20.336800 179.227000 -39.081100 -0.002282 -0.040193 -0.015479 0.054690 18.972500 -40.985400 0.000008 0.000006 -2.293650 3.175740 -64.043300 -11.754300 -0.000006 -0.000006 -0.005202 -0.063402 -19.152900
0.000000 0.000000 0.000000 0.000000 0.000000 -0.000000 -0.751249 92.031800 -0.433968 87.684100 -1.562500 2.092300 15.735700 0.000005 -0.000001 88.806400 84.833600 -87.938600 8.984550 -0.406207 -0.000000 2.567010 -0.254413 1.739540 16.377300 -0.000001 -0.000001 0.127536 -3.730600 2.080330 6.456720 -0.000001 -0.000000 -3.721580 -2.745440 -0.605065 12.994200 -0.242716 4.980390 -90.241900 0.759535 -72.335200 5.348090 -0.000007 -0.000001 -65.232100 36.856300 -15.461800 24.328600 0.000019 0.000005 3.593720 7.451250 -25.840200 22.291600 -0.000001 0.000005 5.656910 5.541730 -8.323760 12.994500 -0.242716 -4.980390 88.394400 4.434690 -70.073100 -5.348130 -0.000001 -0.000004 -55.948100 46.788700 -13.521300 -24.328900 0.000322 -0.000009 6.389860 7.543300 -40.480200 -22.291500 -0.000108 -0.000004 8.897670 5.561800 -9.300850 -2.192480 -6.469440 -0.000000 -169.516000 -14.465500 -2.548210 39.081100 -0.000007 -0.000012 -0.181327 0.466680 21.233800 40.985400 -0.000006 -0.000013 -5.972760 2.460840 -64.931000 11.754300 -0.000000 0.000003 -0.000067 -0.000733 -16.605900 -2.192510 6.469440 -0.000001 174.715000 20.236200 179.095000 -39.081100 -0.002282 -0.040193 -0.015924 0.056124 18.928900 -40.985400 0.000008 0.000006 -2.343970 3.161140 -63.960600 -11.754300 -0.000006 -0.000006 -0.005121 -0.062630 -19.121500
0.000000 0.000000 0.000000 0.000000 0.000000 -0.000000 -0.746318 92.046500 -0.488290 87.698700 -1.508270 2.140330 15.735700 0.000005 -0.000001 88.266000 84.752500 -87.337700 8.984550 -0.406207 -0.000000 2.727820 -0.358070 1.863230 16.377300 -0.000001 -0.000001 0.155700 -3.599280 2.188830 6.456720 -0.000001 -0.000000 -3.876750 -2.478320 -0.007621 12.994200 -0.242716 4.980390 -90.258400 0.795981 -72.016700 5.348090 -0.000007 -0.000001 -63.933100 34.224600 -15.736700 24.328600 0.000019 0.000005 3.858210 7.885730 -26.176400 22.291600 -0.000001 0.000005 4.498280 5.537860 -8.144780 12.994500 -0.242716 -4.980390 88.620800 3.692690 -69.501700 -5.348130 -0.000001 -0.000004 -52.995200 48.661200 -12.199600 -24.328900 0.000322 -0.000009 6.194570 5.464440 -48.751700 -22.291500 -0.000108 -0.000004 6.746280 5.594620 -11.051600 -2.192480 -6.469440 -0.000000 -169.528000 -14.463100 -2.509840 39.081100 -0.000007 -0.000012 -0.179620 0.464200 21.153900 40.985400 -0.000006 -0.000013 -5.955190 2.502580 -64.846500 11.754300 -0.000000 0.000003 -0.000056 -0.000623 -16.601700 -2.192510 6.469440 -0.000001 174.701000 20.307300 179.139000 -39.081100 -0.002282 -0.040193 -0.012927 0.047513 18.881400 -40.985400 0.000008 0.000006 -2.274770 3.161370 -63.910500 -11.754300 -0.000006 -0.000006 -0.005364 -0.064945 -19.215800
0.000000 0.000000 0.000000 0.000000 0.000000 -0.000000 -0.772357 92.046100 -0.550920 87.663300 -1.405740 2.123270 15.735700 0.000005 -0.000001 87.256000 84.708200 -86.239600 8.984550 -0.406207 -0.000000 2.811250 -0.550129 2.044280 16.377300 -0.000001 -0.000001 0.251560 -3.463140 2.271860 6.456720 -0.000001 -0.000000 -3.875870 -2.118300 0.605373 12.994200 -0.242716 4.980390 -90.267200 0.809826 -71.739400 5.348090 -0.000007 -0.000001 -61.225900 31.717700 -16.740900 24.328600 0.000019 0.000005 4.252380 8.731020 -26.097300 22.291600 -0.000001 0.000005 3.027250 5.523940 -7.523720 12.994500 -0.242716 -4.980390 88.939200 2.766700 -69.011300 -5.348130 -0.000001 -0.000004 -50.001900 50.307900 -10.857000 -24.328900 0.000322 -0.000009 6.626420 4.275840 -57.311300 -22.291500 -0.000108 -0.000004 5.140540 5.620980 -12.698600 -2.192480 -6.469440 -0.000000 -169.499000 -14.416200 -2.646660 39.081100 -0.000007 -0.000012 -0.180615 0.464775 21.236800 40.985400 -0.000006 -0.000013 -5.946820 2.546220 -64.821500 11.754300 -0.000000 0.000003 -0.000068 -0.000743 -16.606300 -2.192510 6.469440 -0.000001 174.746000 20.370800 179.107000 -39.081100 -0.002282 -0.040193 -0.018128 0.062835 18.849200 -40.985400 0.000008 0.000006 -2.427970 3.147030 -63.849100 -11.754300 -0.000006 -0.000006 -0.005190 -0.063292 -19.148400
0.000000 0.000000 0.000000 0.000000 0.000000 -0.000000 -0.804129 92.057800 -0.613392 87.708800 -1.398880 2.200080 15.735700 0.000005 -0.000001 86.342500 84.636900 -85.238100 8.984550 -0.406207 -0.000000 2.946600 -0.730000 2.225290 16.377300 -0.000001 -0.000001 0.375006 -3.290020 2.321660 6.456720 -0.000001 -0.000000 -3.762520 -1.728030 1.071120 12.994200 -0.242716 4.980390 -90.275000 0.820510 -71.473000 5.348090 -0.000007 -0.000001 -57.779600 28.426300 -18.090600 24.328600 0.000019 0.000005 4.629980 9.734850 -25.592100 22.291600 -0.000001 0.000005 1.545940 5.506510 -6.796310 12.994500 -0.242716 -4.980390 89.268500 1.860210 -68.526700 -5.348130 -0.000001 -0.000004 -46.504300 51.937400 -9.904540 -24.328900 0.000322 -0.000009 7.239680 3.291020 -65.689100 -22.291500 -0.000108 -0.000004 4.408450 5.636310 -13.825700 -2.192480 -6.469440 -0.000000 -169.508000 -14.393600 -2.547140 39.081100 -0.000007 -0.000012 -0.178039 0.461100 21.112600 40.985400 -0.000006 -0.000013 -5.967830 2.551050 -64.716700 11.754300 -0.000000 0.000003 -0.000055 -0.000618 -16.601500 -2.192510 6.469440 -0.000001 174.715000 20.296900 179.143000 -39.081100 -0.002282 -0.040193 -0.019562 0.067029 18.851400 -40.985400 0.000008 0.000006 -2.419580 3.093630 -63.825800 -11.754300 -0.000006 -0.000006 -0.005273 -0.064083 -19.180700
0.000000 0.000000 0.000000 0.000000 0.000000 -0.000000 -0.860086 92.050700 -0.684087 87.708800 -1.381070 2.288210 15.735700 0.000005 -0.000001 85.149900 84.555400 -83.910000 8.984550 -0.406207 -0.000000 3.096240 -0.970210 2.503450 16.377300 -0.000001 -0.000001 0.640784 -3.078790 2.326540 6.456720 -0.000001 -0.000000 -3.762000 -1.284640 1.402640 12.994200 -0.242716 4.980390 -90.224300 0.658349 -71.186300 5.348090 -0.000007 -0.000001 -54.465100 23.629100 -19.370200 24.328600 0.000019 0.000005 4.673850 10.207300 -24.765700 22.291600 -0.000001 0.000005 0.704027 5.494030 -6.293410 12.994500 -0.242716 -4.980390 89.621600 0.940808 -68.084200 -5.348130 -0.000001 -0.000004 -42.591300 53.608100 -9.541310 -24.328900 0.000322 -0.000009 6.988810 2.090610 -73.435400 -22.291500 -0.000108 -0.000004 4.038980 5.641500 -14.250900 -2.192480 -6.469440 -0.000000 -169.436000 -14.485400 -2.534100 39.081100 -0.000007 -0.000012 -0.179230 0.462869 21.167400 40.985400 -0.000006 -0.000013 -5.976560 2.681490 -64.672100 11.754300 -0.000000 0.000003 -0.000061 -0.000671 -16.603500 -2.192510 6.469440 -0.000001 174.735000 20.237600 179.143000 -39.081100 -0.002282 -0.040193 -0.022820 0.076138 18.950700 -40.985400 0.000008 0.000006 -2.523050 3.040050 -63.842900 -11.754300 -0.000006 -0.000006 -0.005214 -0.063525 -19.157900
0.000000 0.000000 0.000000 0.000000 0.000000 -0.000000 -0.959828 92.052800 -0.736078 87.681900 -1.487130 2.433910 15.735700 0.000005 -0.000001 84.318200 84.465300 -82.919000 8.984550 -0.406207 -0.000000 3.265140 -1.149610 2.828350 16.377300 -0.000001 -0.000001 0.949038 -2.874060 2.390920 6.456720 -0.000001 -0.000000 -3.686810 -0.811765 1.610290 12.994200 -0.242716 4.980390 -90.107200 0.311032 -70.988500 5.348090 -0.000007 -0.000001 -51.631500 17.087400 -20.422500 24.328600 0.000019 0.000005 4.610100 10.529600 -23.809600 22.291600 -0.000001 0.000005 0.834998 5.494220 -6.301990 12.994500 -0.242716 -4.980390 90.003100 -0.007464 -67.723300 -5.348130 -0.000001 -0.000004 -38.923900 55.243500 -9.477060 -24.328900 0.000322 -0.000009 8.153520 1.386410 -80.402200 -22.291500 -0.000108 -0.000004 4.524370 5.646740 -14.708600 -2.192480 -6.469440 -0.000000 -169.292000 -14.601800 -2.362350 39.081100 -0.000007 -0.000012 -0.179014 0.463543 21.116200 40.985400 -0.000006 -0.000013 -6.033560 2.727610 -64.600700 11.754300 -0.000000 0.000003 -0.000047 -0.000535 -16.598300 -2.192510 6.469440 -0.000001 174.805000 20.153500 179.205000 -39.081100 -0.002282 -0.040193 -0.021962 0.073301 19.031800 -40.985400 0.000008 0.000006 -2.419050 3.025180 -63.870500 -11.754300 -0.000006 -0.000006 -0.005228 -0.063654 -19.163200
